# xmcd
#
# Track frame offsets: 
#        150
#        12947
#        25004
#        37932
#        54360
#        70335
#        87531
#        101522
#        113283
#        128658
#        139375
#        156850
#        171475
#        184866
#
# Disc length: 2683 seconds
#
# Revision: 0
# Processed by: cddbd v1.5.2PL0 Copyright (c) Steve Scherf et al.
# Submitted via: ExactAudioCopy v1.3
#
DISCID=b30a790e
DTITLE=Darrell Nulisch - The Bigtone Sessions, Vol. 1
DYEAR=2018
DGENRE=Blues
TTITLE0=Just Got To Know
TTITLE1=I Can't Judge Nobody
TTITLE2=Person To Person
TTITLE3=Bloodstains On The Wall
TTITLE4=Stop Crying
TTITLE5=Fool's Way
TTITLE6=Hoodoo Party
TTITLE7=Lonely Nights
TTITLE8=Hello Stranger
TTITLE9=Pocket Full Of Money
TTITLE10=Sad And Lonesome Day
TTITLE11=Last Time
TTITLE12=Worried Life Blues
TTITLE13=If You Ever Loved Somebody
EXTD=
EXTT0=
EXTT1=
EXTT2=
EXTT3=
EXTT4=
EXTT5=
EXTT6=
EXTT7=
EXTT8=
EXTT9=
EXTT10=
EXTT11=
EXTT12=
EXTT13=
PLAYORDER=
